<?xml version="1.0" ?>
<!-- Uploaded to: SVG Repo, www.svgrepo.com, Generator: SVG Repo Mixer Tools -->
<svg width="800px" height="800px" viewBox="0 0 512 512" id="Layer_1" version="1.1" xml:space="preserve" xmlns="http://www.w3.org/2000/svg" xmlns:xlink="http://www.w3.org/1999/xlink">
<style type="text/css">
	.st0{fill:#6040EC;}
	.st1{fill:#0BDC49;}
</style>
<g>
<g>
<path class="st1" d="M377.1,351.2h-51.5c-6.6,0-12-5.4-12-12s5.4-12,12-12h51.5c17.9,0,34.6-6.9,47.2-19.5s19.5-29.4,19.5-47.2    c0-36.8-30-66.8-66.8-66.8h-82.9c-17.9,0-34.6,6.9-47.2,19.5s-19.5,29.4-19.5,47.2c0,6.6-5.4,12-12,12s-12-5.4-12-12    c0-24.3,9.4-47.1,26.6-64.2s39.9-26.6,64.2-26.6h82.9c50.1,0,90.8,40.7,90.8,90.8c0,24.3-9.4,47.1-26.6,64.2    S401.3,351.2,377.1,351.2z"/>
</g>
<g>
<path class="st0" d="M213.6,351.2h-82.9c-50.1,0-90.8-40.7-90.8-90.8c0-24.3,9.4-47.1,26.6-64.2s39.9-26.6,64.2-26.6h51.5    c6.6,0,12,5.4,12,12s-5.4,12-12,12h-51.5c-17.9,0-34.6,6.9-47.2,19.5s-19.5,29.4-19.5,47.2c0,36.8,30,66.8,66.8,66.8h82.9    c17.9,0,34.6-6.9,47.2-19.5s19.5-29.4,19.5-47.2c0-6.6,5.4-12,12-12s12,5.4,12,12c0,24.3-9.4,47.1-26.6,64.2    S237.8,351.2,213.6,351.2z"/>
</g>
</g>
</svg>