<?xml version="1.0" encoding="utf-8"?>
<!-- Generator: Adobe Illustrator 26.0.0, SVG Export Plug-In . SVG Version: 6.00 Build 0)  -->
<svg version="1.0" id="Layer_1" xmlns="http://www.w3.org/2000/svg" xmlns:xlink="http://www.w3.org/1999/xlink" x="0px" y="0px"
	 viewBox="0 0 800 316" style="enable-background:new 0 0 800 316;" xml:space="preserve">
<style type="text/css">
	.st0{fill:#00B204;}
</style>
<g>
	<path class="st0" d="M155.68,0.44v121.77h0v19.55c0,0.01,0,0.01,0,0.02v0.01c0,1.6-0.08,3.2-0.22,4.78h0.22v0h-0.22
		c-0.88,9.75-4.46,18.96-10.31,26.84c-1.59,2.13-3.3,4.19-5.22,6.11c-10.16,10.16-23.55,15.75-37.72,15.76c0,0,0,0-0.01,0
		c0,0,0,0-0.01,0c-14.17-0.01-27.56-5.6-37.72-15.76c-1.92-1.92-3.64-3.97-5.22-6.11c-5.86-7.88-9.43-17.09-10.31-26.84h-0.22v0
		h0.22c-0.14-1.58-0.22-3.17-0.22-4.78v-0.01c0-0.01,0-0.01,0-0.02v-19.55h0V0.44H0v141.32c0,1.61,0.05,3.21,0.12,4.8
		c0.83,17.78,6.27,34.4,15.12,48.71c3.55,5.73,7.67,11.06,12.24,15.97c6.26,6.72,13.38,12.64,21.22,17.49
		c15.58,9.65,33.91,15.24,53.49,15.25c19.58-0.01,37.9-5.6,53.49-15.25c7.85-4.86,14.96-10.77,21.22-17.49
		c4.57-4.91,8.69-10.24,12.24-15.97c8.86-14.31,14.29-30.93,15.12-48.71c0.07-1.59,0.12-3.19,0.12-4.8V0.44H155.68z"/>
	<path class="st0" d="M598.74,97.85L598.74,97.85c-0.83-17.78-6.27-34.4-15.12-48.71c-3.55-5.73-7.67-11.06-12.24-15.97
		c-6.26-6.72-13.38-12.64-21.22-17.49c-15.58-9.64-33.94-15.25-53.51-15.25h-0.01c-0.01,0-0.01,0-0.02,0
		c-19.58,0.01-37.9,5.6-53.49,15.25c-7.85,4.86-14.96,10.77-21.22,17.49c-4.57,4.91-8.69,10.24-12.24,15.97
		c-8.86,14.31-14.29,30.93-15.12,48.71l0,0v0c-0.07,1.59-0.12,3.19-0.12,4.8v39.1c0,1.51,0.05,3.01,0.12,4.51l-0.01,0l0.01,0.27
		v0.02c0,0.01,0,0.01,0,0.02l0.01,0.24l0,0c0.87,17.68,6.29,34.21,15.11,48.45c3.55,5.73,7.67,11.06,12.24,15.97
		c6.26,6.72,13.38,12.64,21.22,17.49c15.58,9.65,33.91,15.24,53.49,15.25h0.05c19.56-0.01,37.87-5.59,53.45-15.22
		c7.85-4.86,15-10.8,21.26-17.52l-13.4-15.97l-7.86-9.36l-10.5-12.51c-1.59,2.13-3.3,4.19-5.22,6.11
		c-10.16,10.16-23.55,15.75-37.72,15.76c-0.01,0-0.02,0-0.03,0c-0.01,0-0.02,0-0.03,0c0,0,0,0-0.01,0
		c-14.17-0.01-27.56-5.6-37.72-15.76c-1.92-1.92-3.64-3.97-5.22-6.11c-5.86-7.88-9.43-17.09-10.31-26.84v0h155.39
		c0.07-1.59,0.12-3.18,0.12-4.79v-39.13C598.86,101.04,598.82,99.44,598.74,97.85z M496.62,122.24v-0.06l0.03,0.03L496.62,122.24z
		 M509.87,97.85L509.87,97.85l-66.52,0v0c0.88-9.75,4.46-18.96,10.31-26.84c1.59-2.13,3.3-4.19,5.22-6.11
		c10.16-10.16,23.55-15.75,37.72-15.76c0.01,0,0.02,0,0.03,0c14.18,0,27.59,5.6,37.75,15.76c1.92,1.92,3.64,3.97,5.22,6.11
		c5.86,7.88,9.43,17.09,10.31,26.84H509.87z"/>
	<path class="st0" d="M786.6,195.27l-7.82-9.31l-10.54-12.55c-1.59,2.13-3.3,4.19-5.22,6.11c-10.16,10.16-23.55,15.75-37.72,15.76
		c-0.01,0-0.02,0-0.03,0c-0.01,0-0.02,0-0.03,0c0,0,0,0-0.01,0c-14.17-0.01-27.56-5.6-37.72-15.76c-1.92-1.92-3.64-3.97-5.22-6.11
		c-5.86-7.88-9.43-17.09-10.31-26.84h-0.22v0h0.22c-0.14-1.58-0.22-3.17-0.22-4.78v-0.01c0-0.01,0-0.01,0-0.02v-39.09
		c0-0.01,0-0.01,0-0.02V0.44h-48.71v141.32c0,1.61,0.05,3.21,0.12,4.8c0.83,17.78,6.27,34.4,15.12,48.71
		c3.55,5.73,7.67,11.06,12.24,15.97c6.26,6.72,13.38,12.64,21.22,17.49c15.58,9.65,33.91,15.24,53.49,15.25h0.05
		c15.32,0,29.87-3.44,42.95-9.56c3.62-1.69,7.17-3.6,10.54-5.69c7.85-4.86,14.96-10.77,21.22-17.49L786.6,195.27z"/>
	<path d="M149.91,288.59c0,7.42-2.33,13.77-7,19.05c-4.67,5.28-10.28,7.92-16.84,7.92c-6.57,0-12.18-2.64-16.85-7.92
		c-4.67-5.28-7-11.63-7-19.05v-21.7h8.46v21.7c0,4.78,1.53,8.91,4.52,12.29c2.99,3.38,6.64,5.11,10.87,5.11
		c4.23,0,7.87-1.73,10.86-5.11s4.52-7.51,4.52-12.29v-21.7h8.46V288.59z"/>
	<path d="M176.84,282.57v32.99h-8.46v-48.67h5.98l31.58,33v-33h8.46v48.67h-5.91L176.84,282.57z"/>
	<path d="M241.49,266.89v48.67h-8.46v-48.67H241.49z"/>
	<path d="M282.29,300.79l16.7-33.9h9.77l-23.92,48.67h-5.03l-23.99-48.67h9.77L282.29,300.79z"/>
	<path d="M361.82,305.99v9.57h-38.72v-19.55v-9.57v-19.55h38.72v9.57h-30.26v9.98h23.7v9.57h-23.7v9.98H361.82z"/>
	<path d="M388.91,298.48v17.08h-8.46v-48.67h29.32c3.87,0,7.22,1.57,9.92,4.62c2.7,3.05,4.08,6.85,4.08,11.22
		c0,7.18-4.23,13.2-10.14,15.18l12.25,17.65h-10.79l-11.81-17.08H388.91z M388.91,276.46v12.46h20.86c3.14,0,5.54-2.64,5.54-6.19
		s-2.4-6.27-5.54-6.27H388.91z"/>
	<path d="M477.04,313.42c-4.45,1.4-8.9,2.14-13.27,2.14c-2.4,0-5.25-0.33-8.46-1.07c-3.14-0.74-8.17-2.23-15.1-4.54l2.41-9.16
		c8.31,2.72,14.95,4.29,19.91,4.7c4.96,0.41,8.97,0,12.11-1.32c1.97-0.58,3.28-1.98,3.28-3.22c0-1.32-1.31-2.72-3.43-3.38
		c-1.75-0.41-5.69-0.99-11.89-1.57c-6.2-0.58-10.94-1.73-14.22-3.3c-4.38-2.23-7.15-6.52-7.15-11.38c0-5.53,3.65-10.23,8.97-12.13
		c8.53-3.22,18.74-2.81,33.4,2.06l-2.48,9.16c-12.76-4.37-22.02-4.7-28.51-2.06c-1.82,0.66-2.92,1.9-2.92,2.97
		c0,0.99,0.73,1.9,2.11,2.64c2.85,1.4,7.15,2.31,12.91,2.8c5.83,0.5,9.77,0.99,11.81,1.57c5.84,1.65,9.77,6.68,9.77,12.62
		C486.31,306.57,482.59,311.52,477.04,313.42z"/>
	<path d="M513.53,266.89v48.67h-8.46v-48.67H513.53z"/>
	<path d="M532.16,315.56v-48.67h22.9c5.98,0,11.09,2.39,15.24,7.18c4.16,4.7,6.27,10.48,6.27,17.16c0,6.68-2.12,12.46-6.27,17.24
		c-4.16,4.7-9.26,7.09-15.24,7.09H532.16z M540.62,276.46v29.53h14.44c3.58,0,6.64-1.4,9.19-4.29c2.55-2.89,3.86-6.43,3.86-10.48
		c0-4.04-1.31-7.51-3.86-10.4c-2.55-2.89-5.61-4.37-9.19-4.37H540.62z"/>
	<path d="M625.4,301.45h-23.99l-7.59,14.11h-9.55l26.25-48.67h5.76l26.25,48.67h-9.55L625.4,301.45z M620.44,292.22l-7-12.95
		l-7,12.95H620.44z"/>
	<path d="M652.93,315.56v-48.67h22.9c5.98,0,11.09,2.39,15.24,7.18c4.16,4.7,6.27,10.48,6.27,17.16c0,6.68-2.12,12.46-6.27,17.24
		c-4.16,4.7-9.26,7.09-15.24,7.09H652.93z M661.39,276.46v29.53h14.44c3.58,0,6.64-1.4,9.19-4.29c2.55-2.89,3.86-6.43,3.86-10.48
		c0-4.04-1.31-7.51-3.86-10.4c-2.55-2.89-5.61-4.37-9.19-4.37H661.39z"/>
	<path class="st0" d="M388.33,207.19c-1.4-2.27-2.73-4.57-3.98-6.92c-4.52-8.5-8.07-17.57-10.52-26.85l-0.02-0.02
		c-1.59,2.13-3.3,4.19-5.22,6.11c-10.16,10.16-23.55,15.75-37.72,15.76c-0.01,0-0.02,0-0.03,0c-0.01,0-0.02,0-0.03,0h-0.01
		c-14.17-0.01-27.56-5.6-37.72-15.76c-1.92-1.92-3.64-3.97-5.22-6.11c-5.86-7.88-9.43-17.09-10.31-26.84
		c-0.14-1.58-0.22-3.18-0.22-4.79c0-0.01,0-0.01,0-0.02v-19.55h0V97.85h52.75v0h26.67l-0.02-48.71h-25.91v0h-53.49V0.44h-48.71
		v141.32c0,1.61,0.05,3.21,0.12,4.8c0.83,17.78,6.27,34.4,15.12,48.71c3.55,5.73,7.67,11.06,12.24,15.97
		c6.26,6.72,13.38,12.64,21.22,17.49c15.58,9.65,33.91,15.24,53.49,15.25h0.05c19.56-0.01,37.87-5.59,53.45-15.22
		c4.47-2.77,8.72-5.94,12.7-9.36C393.85,215.45,390.93,211.38,388.33,207.19z"/>
</g>
</svg>
